<svg width="420" height="414" xmlns="http://www.w3.org/2000/svg"><g fill="none" fill-rule="evenodd"><path d="M218.67 401.718c-8.57 17.455-57.427 11.027-109.12-14.358-51.696-25.385-86.654-60.115-78.083-77.57 8.572-17.455 57.428-11.027 109.122 14.36 51.695 25.383 86.653 60.113 78.081 77.568" fill="#E9E9E9"/><path fill="#F4F4F4" d="M70.702 148.834l160.167-36.264v193.409"/><path fill="#F4F4F4" d="M230.869 112.57l135.99 63.462V372.44L229.359 265.18M194.604 411.75L79.767 333.178l-9.066-184.344 123.903 69.507"/><path d="M191.582 224.384s-21.154 54.396-54.396 60.44c-8.92 1.623-117.859-75.55-117.859-75.55s48.352-39.286 51.374-60.44M197.626 224.384s3.022 39.286 45.33 54.396c5.692 2.034 172.255-42.308 172.255-42.308s-36.264-18.132-48.352-60.44L194.604 218.34v193.41l172.255-39.287" fill="#F4F4F4"/><path d="M324.551 302.957a9.066 9.066 0 1 1-18.132 0 9.066 9.066 0 0 1 18.132 0M276.199 315.046a9.065 9.065 0 0 1-9.066 9.065 9.065 9.065 0 0 1-9.066-9.065 9.065 9.065 0 0 1 9.066-9.067 9.065 9.065 0 0 1 9.066 9.067" fill="#BABABA"/><path stroke="#BABABA" stroke-width="3.022" d="M70.702 148.834l160.167-36.264v96.704"/><path d="M366.86 372.463v-196.43l-135.991-63.464 135.99 63.463v196.431L194.606 411.75V218.34l172.255-42.308c12.088 42.308 48.352 60.44 48.352 60.44s-166.563 44.342-172.255 42.308c-42.308-15.11-48.352-60.44-48.352-60.44M194.604 411.75L79.767 333.178l-9.04-183.822a.288.288 0 0 1 .43-.266l123.447 69.25" stroke="#BABABA" stroke-width="3.022"/><path d="M194.604 218.34s-24.176 57.418-57.418 63.462c-8.92 1.622-117.859-75.55-117.859-75.55-.14.115 32.698-19.672 51.374-57.418" stroke="#BABABA" stroke-width="3.022"/><path d="M266.133 365.526c6.377-14.938 20.845-25.731 38.158-26.588a43.637 43.637 0 0 1 27.803 8.228" stroke="#BABABA" stroke-width="6.044" stroke-linecap="round" stroke-linejoin="round"/><path fill="#BABABA" d="M55.497 171.918l124.063 74.843-16.203 19.444-121.798-80.05zM207.168 250.227l172.346-46.902 11.013 13.783-169.898 49.098z"/><path d="M187.05 186.61l-39.287-57.419s-27.198 12.087-36.264-12.089c-9.067-24.176 12.088-30.22 12.088-30.22s0-30.22 24.176-36.264c24.176-6.044 33.242 18.132 33.242 18.132s30.22 3.022 30.22 27.198c0 24.176-27.198 21.154-27.198 21.154l3.022 69.507z" fill="#F4F4F4"/><path d="M188.639 190.667l-41.615-60.82s-28.81 12.803-38.413-12.806c-9.603-25.608 12.804-32.01 12.804-32.01s0-32.012 25.609-38.414c25.609-6.401 35.213 19.208 35.213 19.208s32.01 3.2 32.01 28.81c0 25.608-28.81 22.406-28.81 22.406l3.202 73.626z" stroke="#BABABA" stroke-width="3.022"/><path d="M123.587 120.125c-9.066-24.176 12.088-30.22 12.088-30.22s0-30.22 24.176-36.264c2.632-.658 5.074-.94 7.356-.952-4.936-2.718-11.337-4.097-19.444-2.07-24.176 6.044-24.176 36.264-24.176 36.264s-21.154 6.044-12.088 30.22c4.542 12.112 13.634 15.12 21.577 15.109-3.823-2.266-7.223-6.044-9.49-12.087" fill="#FFF"/><path d="M268.188 180.048l7.96-42.462s-17.25-6.635-10.614-21.232c6.634-14.596 18.577-7.961 18.577-7.961s13.269-13.27 26.539-5.308c13.269 7.962 6.635 22.558 6.635 22.558s11.942 14.596 1.327 25.212-21.232-2.654-21.232-2.654l-29.192 31.847z" fill="#F4F4F4"/><path d="M267.103 182.528l8.434-44.98s-18.273-7.027-11.245-22.49c7.028-15.46 19.678-8.432 19.678-8.432s14.057-14.056 28.112-5.622c14.056 8.433 7.029 23.895 7.029 23.895s12.649 15.46 1.405 26.706c-11.245 11.245-22.489-2.811-22.489-2.811l-30.924 33.734z" stroke="#BABABA" stroke-width="1.877"/><path d="M269.514 122.989c6.635-14.596 18.578-7.961 18.578-7.961s13.27-13.27 26.54-5.31a19.168 19.168 0 0 1 3.647 2.813c-.974-3.361-3.179-6.776-7.629-9.446-13.27-7.962-26.539 5.308-26.539 5.308s-11.943-6.635-18.577 7.96c-3.325 7.314-.654 12.627 2.84 16.11-.684-2.674-.518-5.825 1.14-9.474" fill="#FFF"/><path d="M403.357 134.17a9.065 9.065 0 0 1-3.318-12.384 9.067 9.067 0 0 1 15.703 9.066 9.067 9.067 0 0 1-12.385 3.318" fill="#F4F4F4"/><path d="M3.4 264.01a5.633 5.633 0 1 1 5.634-9.758A5.633 5.633 0 0 1 3.4 264.01z" stroke="#BABABA" stroke-width="1.166"/><path d="M295.086 14.354h-12.088V2.266A2.273 2.273 0 0 0 280.732 0a2.273 2.273 0 0 0-2.267 2.266v12.088h-12.088a2.273 2.273 0 0 0-2.267 2.267 2.273 2.273 0 0 0 2.267 2.266h12.088v12.088a2.273 2.273 0 0 0 2.267 2.267 2.273 2.273 0 0 0 2.266-2.267V18.887h12.088a2.274 2.274 0 0 0 2.267-2.266 2.274 2.274 0 0 0-2.267-2.267M75.207 67.977l-4.376-1.583 4.214-1.975c.591-.277.849-.988.571-1.58a1.191 1.191 0 0 0-1.579-.571l-4.214 1.975 1.583-4.376a1.19 1.19 0 0 0-.713-1.521 1.19 1.19 0 0 0-1.521.713l-1.583 4.376-1.975-4.214a1.19 1.19 0 0 0-1.579-.572 1.19 1.19 0 0 0-.572 1.579l1.975 4.215-4.377-1.584a1.191 1.191 0 0 0-1.52.713 1.192 1.192 0 0 0 .713 1.52l4.376 1.584-4.214 1.975a1.19 1.19 0 0 0-.571 1.58 1.19 1.19 0 0 0 1.579.57l4.214-1.974-1.583 4.377a1.19 1.19 0 0 0 .713 1.52 1.19 1.19 0 0 0 1.52-.712l1.584-4.377 1.975 4.215a1.19 1.19 0 0 0 1.579.57c.592-.276.848-.987.572-1.578l-1.976-4.215 4.377 1.584a1.19 1.19 0 0 0 1.52-.713 1.19 1.19 0 0 0-.712-1.521M16.078 139.126l-13.755-9.082 14.743-7.372z" fill="#BABABA"/></g></svg>