<svg class="icon" viewBox="0 0 1024 1024" xmlns="http://www.w3.org/2000/svg" width="200" height="200"><defs><style/></defs><path d="M64 192v128h64V192c0-38.4 25.6-64 64-64h128V64H192c-70.4 0-128 57.6-128 128zM832 64H704v64h128c38.4 0 64 25.6 64 64v128h64V192c0-70.4-57.6-128-128-128zM128 832V704H64v128c0 70.4 57.6 128 128 128h128v-64H192c-38.4 0-64-25.6-64-64zm768 0c0 38.4-25.6 64-64 64H704v64h128c70.4 0 128-57.6 128-128V704h-64v128z" fill="#4D4D4D"/><path d="M64 320a32 32 0 1 0 64 0 32 32 0 1 0-64 0zM64 512a32 32 0 1 0 64 0 32 32 0 1 0-64 0zM896 512a32 32 0 1 0 64 0 32 32 0 1 0-64 0zM64 704a32 32 0 1 0 64 0 32 32 0 1 0-64 0zM896 320a32 32 0 1 0 64 0 32 32 0 1 0-64 0zM288 96a32 32 0 1 0 64 0 32 32 0 1 0-64 0zM672 96a32 32 0 1 0 64 0 32 32 0 1 0-64 0zM288 928a32 32 0 1 0 64 0 32 32 0 1 0-64 0zM672 928a32 32 0 1 0 64 0 32 32 0 1 0-64 0zM896 704a32 32 0 1 0 64 0 32 32 0 1 0-64 0z" fill="#4D4D4D"/><path d="M96 480h832v64H96z" fill="#4D4D4D"/></svg>